<svg id="instagram" xmlns="http://www.w3.org/2000/svg" width="187.927" height="187.963" viewBox="0 0 187.927 187.963">
  <defs>
    <style>
      .cls-1 {
        fill: #c1a57b;
      }
    </style>
  </defs>
  <path id="Tracé_1" data-name="Tracé 1" class="cls-1" d="M187.9,55.262c-.44-9.987-2.055-16.853-4.369-22.8a48.149,48.149,0,0,0-27.5-27.5c-5.984-2.314-12.814-3.929-22.8-4.369C123.162.11,119.968,0,94.449,0S65.735.11,55.71.551c-9.987.44-16.853,2.057-22.8,4.369A45.862,45.862,0,0,0,16.238,15.789,46.277,46.277,0,0,0,5.406,32.423c-2.314,5.985-3.929,12.814-4.369,22.8C.559,65.286.449,68.481.449,94s.11,28.714.551,38.738c.44,9.987,2.057,16.853,4.37,22.8a48.142,48.142,0,0,0,27.5,27.5c5.985,2.314,12.814,3.929,22.8,4.369,10.023.442,13.219.551,38.738.551s28.714-.109,38.738-.551c9.987-.44,16.853-2.055,22.8-4.369a48.077,48.077,0,0,0,27.5-27.5c2.312-5.985,3.929-12.816,4.369-22.8.44-10.025.551-13.219.551-38.738s-.037-28.714-.478-38.738ZM170.971,132c-.4,9.18-1.946,14.137-3.232,17.441a31.18,31.18,0,0,1-17.846,17.846c-3.3,1.285-8.3,2.827-17.441,3.23-9.914.442-12.887.551-37.966.551s-28.09-.109-37.968-.551c-9.18-.4-14.137-1.945-17.441-3.23a28.923,28.923,0,0,1-10.795-7.014,29.223,29.223,0,0,1-7.014-10.795c-1.285-3.3-2.827-8.3-3.23-17.441-.442-9.914-.551-12.889-.551-37.968s.109-28.09.551-37.966c.4-9.18,1.945-14.137,3.23-17.441a28.569,28.569,0,0,1,7.051-10.8,29.178,29.178,0,0,1,10.795-7.012c3.3-1.285,8.3-2.827,17.441-3.232,9.914-.44,12.889-.551,37.966-.551,25.116,0,28.09.11,37.968.551,9.18.4,14.137,1.946,17.441,3.232a28.9,28.9,0,0,1,10.795,7.012,29.217,29.217,0,0,1,7.014,10.8c1.285,3.3,2.827,8.3,3.232,17.441.44,9.914.551,12.887.551,37.966s-.11,28.017-.551,37.931Zm0,0" transform="translate(-0.449 0)"/>
  <path id="Tracé_2" data-name="Tracé 2" class="cls-1" d="M173.234,124.5a48.285,48.285,0,1,0,48.285,48.285A48.3,48.3,0,0,0,173.234,124.5Zm0,79.607a31.321,31.321,0,1,1,31.321-31.321,31.326,31.326,0,0,1-31.321,31.321Zm0,0" transform="translate(-79.234 -78.785)"/>
  <path id="Tracé_3" data-name="Tracé 3" class="cls-1" d="M385,99.874A11.273,11.273,0,1,1,373.722,88.6,11.273,11.273,0,0,1,385,99.874Zm0,0" transform="translate(-229.527 -56.068)"/>
</svg>
