<svg xmlns="http://www.w3.org/2000/svg" width="512" height="431.435" viewBox="0 0 512 431.435">
  <defs>
    <style>
      .cls-1 {
        fill: #c1a57b;
      }
    </style>
  </defs>
  <g id="shopping-cart" transform="translate(0 -40.283)">
    <path id="Tracé_4" data-name="Tracé 4" class="cls-1" d="M504.4,185.065a35.379,35.379,0,0,0-27.83-13.348h-98.6L324.5,49.284A15,15,0,1,0,297,61.291l48.225,110.427H166.771L215,61.291A15,15,0,1,0,187.5,49.284L134.035,171.718h-98.6A35.376,35.376,0,0,0,7.6,185.066,34.538,34.538,0,0,0,.882,214.442l52.657,230a35.144,35.144,0,0,0,34.549,27.276H423.912a35.144,35.144,0,0,0,34.549-27.276l52.657-230a34.538,34.538,0,0,0-6.719-29.376ZM423.912,441.717H88.088a5.364,5.364,0,0,1-5.305-3.972l-52.657-230a4.58,4.58,0,0,1,.936-3.984,5.447,5.447,0,0,1,4.369-2.045h85.5l-3.929,9A15,15,0,1,0,144.5,222.723l9.173-21H358.332l9.173,21A15,15,0,0,0,395,210.715l-3.929-9h85.5a5.447,5.447,0,0,1,4.369,2.045,4.584,4.584,0,0,1,.936,3.983l-52.657,230a5.368,5.368,0,0,1-5.307,3.971Z"/>
    <path id="Tracé_5" data-name="Tracé 5" class="cls-1" d="M166,266.717a15,15,0,0,0-15,15v110a15,15,0,0,0,30,0v-110A15,15,0,0,0,166,266.717Z"/>
    <path id="Tracé_6" data-name="Tracé 6" class="cls-1" d="M256,266.717a15,15,0,0,0-15,15v110a15,15,0,0,0,30,0v-110A15,15,0,0,0,256,266.717Z"/>
    <path id="Tracé_7" data-name="Tracé 7" class="cls-1" d="M346,266.717a15,15,0,0,0-15,15v110a15,15,0,0,0,30,0v-110A15,15,0,0,0,346,266.717Z"/>
  </g>
</svg>
