<svg id="twitter" xmlns="http://www.w3.org/2000/svg" width="188" height="152.75" viewBox="0 0 188 152.75">
  <defs>
    <style>
      .cls-1 {
        fill: #c1a57b;
      }
    </style>
  </defs>
  <g id="Groupe_1" data-name="Groupe 1" transform="translate(0)">
    <path id="Tracé_4" data-name="Tracé 4" class="cls-1" d="M188,66.083a80.356,80.356,0,0,1-22.208,6.087,38.325,38.325,0,0,0,16.955-21.3,77.024,77.024,0,0,1-24.44,9.329A38.539,38.539,0,0,0,91.638,86.552a39.686,39.686,0,0,0,.893,8.789A109.092,109.092,0,0,1,13.089,55.027a38.552,38.552,0,0,0,11.844,51.512A38.062,38.062,0,0,1,7.52,101.792v.423A38.719,38.719,0,0,0,38.4,140.085a38.467,38.467,0,0,1-10.105,1.269A34.078,34.078,0,0,1,21,140.7a38.909,38.909,0,0,0,36.014,26.849A77.442,77.442,0,0,1,9.224,183.983,72.188,72.188,0,0,1,0,183.454a108.505,108.505,0,0,0,59.126,17.3c70.923,0,109.7-58.75,109.7-109.674,0-1.7-.059-3.349-.141-4.982A76.888,76.888,0,0,0,188,66.083Z" transform="translate(0 -48)"/>
  </g>
</svg>
