<svg id="whatsapp" xmlns="http://www.w3.org/2000/svg" width="188" height="188" viewBox="0 0 188 188">
  <defs>
    <style>
      .cls-1 {
        fill: #c1a57b;
      }
    </style>
  </defs>
  <g id="Groupe_2" data-name="Groupe 2">
    <path id="Tracé_5" data-name="Tracé 5" class="cls-1" d="M94.023,0h-.047A93.942,93.942,0,0,0,17.9,149.1L6.181,184.017l36.131-11.55A93.984,93.984,0,1,0,94.023,0Zm54.7,132.74c-2.268,6.4-11.268,11.715-18.447,13.266-4.911,1.046-11.327,1.88-32.924-7.074C69.725,127.488,51.935,99.417,50.549,97.6c-1.328-1.821-11.162-14.864-11.162-28.353S46.236,49.185,49,46.365c2.268-2.315,6.016-3.372,9.611-3.372,1.163,0,2.209.059,3.149.106,2.761.118,4.148.282,5.969,4.641,2.268,5.464,7.79,18.953,8.448,20.339s1.34,3.266.4,5.088a16.244,16.244,0,0,1-3.043,4.312c-1.387,1.6-2.7,2.82-4.089,4.535-1.269,1.492-2.7,3.09-1.1,5.852A83.435,83.435,0,0,0,83.59,106.819a69.108,69.108,0,0,0,22.043,13.595,5.943,5.943,0,0,0,6.627-1.046,113.732,113.732,0,0,0,7.344-9.729,5.246,5.246,0,0,1,6.745-2.044c2.538.881,15.968,7.52,18.729,8.895s4.583,2.044,5.252,3.208S150.988,126.324,148.72,132.74Z"/>
  </g>
</svg>
