<svg xmlns="http://www.w3.org/2000/svg" width="235" height="164.538" viewBox="0 0 235 164.538">
  <defs>
    <style>
      .cls-1 {
        fill: #c1a57b;
      }
    </style>
  </defs>
  <path id="youtube" class="cls-1" d="M230.158,19.664A29.44,29.44,0,0,0,209.447-1.05C191.057-6.082,117.5-6.082,117.5-6.082s-73.556,0-91.946,4.841A30.037,30.037,0,0,0,4.84,19.664C0,38.052,0,76.187,0,76.187s0,38.327,4.839,56.523a29.445,29.445,0,0,0,20.713,20.713c18.582,5.033,91.947,5.033,91.947,5.033s73.556,0,91.946-4.841A29.443,29.443,0,0,0,230.161,132.9C235,114.514,235,76.38,235,76.38s.194-38.328-4.841-56.716ZM94.078,111.417V40.957l61.168,35.23Zm0,0" transform="translate(-0.001 6.082)"/>
</svg>
